<?xml version="1.0" standalone="no"?>
<!DOCTYPE svg PUBLIC "-//W3C//DTD SVG 20010904//EN"
 "http://www.w3.org/TR/2001/REC-SVG-20010904/DTD/svg10.dtd">
<svg version="1.0" xmlns="http://www.w3.org/2000/svg"
 width="591.000000pt" height="591.000000pt" viewBox="0 0 591.000000 591.000000"
 preserveAspectRatio="xMidYMid meet">
<metadata>
Created by potrace 1.16, written by Peter Selinger 2001-2019
</metadata>
<g transform="translate(0.000000,591.000000) scale(0.100000,-0.100000)"
fill="#000000" stroke="none">
<path d="M2843 5893 c9 -2 23 -2 30 0 6 3 -1 5 -18 5 -16 0 -22 -2 -12 -5z"/>
<path d="M2953 5893 c26 -2 67 -2 90 0 23 2 2 3 -48 3 -49 0 -68 -1 -42 -3z"/>
<path d="M3228 5883 c7 -3 16 -2 19 1 4 3 -2 6 -13 5 -11 0 -14 -3 -6 -6z"/>
<path d="M2588 5873 c7 -3 16 -2 19 1 4 3 -2 6 -13 5 -11 0 -14 -3 -6 -6z"/>
<path d="M2508 5863 c7 -3 16 -2 19 1 4 3 -2 6 -13 5 -11 0 -14 -3 -6 -6z"/>
<path d="M3388 5863 c7 -3 16 -2 19 1 4 3 -2 6 -13 5 -11 0 -14 -3 -6 -6z"/>
<path d="M2448 5853 c6 -2 18 -2 25 0 6 3 1 5 -13 5 -14 0 -19 -2 -12 -5z"/>
<path d="M2398 5843 c7 -3 16 -2 19 1 4 3 -2 6 -13 5 -11 0 -14 -3 -6 -6z"/>
<path d="M3498 5843 c7 -3 16 -2 19 1 4 3 -2 6 -13 5 -11 0 -14 -3 -6 -6z"/>
<path d="M1740 5640 c-8 -5 -10 -10 -5 -10 6 0 17 5 25 10 8 5 11 10 5 10 -5
0 -17 -5 -25 -10z"/>
<path d="M4150 5640 c8 -5 20 -10 25 -10 6 0 3 5 -5 10 -8 5 -19 10 -25 10 -5
0 -3 -5 5 -10z"/>
<path d="M1830 5436 c-47 -50 -248 -266 -447 -479 -200 -213 -363 -391 -363
-396 0 -4 11 -18 25 -31 l26 -24 23 25 c13 13 213 227 445 476 231 248 426
455 432 459 10 6 -37 65 -50 63 -3 -1 -44 -42 -91 -93z"/>
<path d="M4420 5506 c0 -3 9 -10 20 -16 11 -6 20 -8 20 -6 0 3 -9 10 -20 16
-11 6 -20 8 -20 6z"/>
<path d="M4670 5346 c0 -2 8 -10 18 -17 15 -13 16 -12 3 4 -13 16 -21 21 -21
13z"/>
<path d="M1179 5303 c-13 -16 -12 -17 4 -4 9 7 17 15 17 17 0 8 -8 3 -21 -13z"/>
<path d="M4800 5246 c0 -2 8 -10 18 -17 15 -13 16 -12 3 4 -13 16 -21 21 -21
13z"/>
<path d="M1079 5223 c-13 -16 -12 -17 4 -4 16 13 21 21 13 21 -2 0 -10 -8 -17
-17z"/>
<path d="M1019 5173 l-24 -28 28 24 c25 23 32 31 24 31 -2 0 -14 -12 -28 -27z"/>
<path d="M4885 5170 c10 -11 20 -20 23 -20 3 0 -3 9 -13 20 -10 11 -20 20 -23
20 -3 0 3 -9 13 -20z"/>
<path d="M870 5033 l-95 -98 98 95 c90 88 102 100 94 100 -1 0 -45 -44 -97
-97z"/>
<path d="M5035 5030 c49 -49 92 -90 95 -90 2 0 -36 41 -85 90 -49 50 -92 90
-95 90 -2 0 36 -40 85 -90z"/>
<path d="M729 4883 l-24 -28 28 24 c25 23 32 31 24 31 -2 0 -14 -12 -28 -27z"/>
<path d="M5170 4885 c13 -14 26 -25 28 -25 3 0 -5 11 -18 25 -13 14 -26 25
-28 25 -3 0 5 -11 18 -25z"/>
<path d="M2365 4830 c-220 -41 -378 -131 -548 -310 -110 -115 -166 -195 -221
-311 -65 -137 -87 -229 -93 -391 -5 -119 -3 -145 15 -205 41 -135 139 -260
244 -314 152 -77 360 -78 513 -1 27 13 105 62 172 109 l124 84 69 -43 c38 -24
68 -47 66 -53 -2 -5 -43 -66 -91 -135 -219 -312 -252 -518 -95 -597 84 -43
180 -22 316 69 41 28 77 48 80 45 7 -7 -16 -51 -66 -129 l-40 -61 -88 2 c-145
3 -279 -38 -408 -127 -177 -121 -239 -271 -168 -402 56 -103 166 -139 279 -90
105 45 316 289 402 465 l26 52 83 7 c176 13 360 117 469 265 l36 50 37 -16
c54 -22 139 -20 187 5 49 25 110 86 101 101 -11 17 -20 14 -75 -23 -89 -60
-192 -58 -245 5 -41 48 -35 60 22 43 37 -12 56 -13 92 -4 55 14 124 53 145 82
29 43 11 119 -37 152 -68 48 -213 -15 -274 -120 -22 -38 -26 -54 -22 -99 l5
-55 -76 -76 c-116 -118 -228 -185 -350 -209 -40 -8 -49 -26 89 173 58 84 132
192 165 240 33 48 90 131 128 184 37 53 67 101 67 106 0 18 -81 84 -97 78 -8
-3 -16 -6 -18 -6 -2 0 -40 -44 -83 -97 -91 -112 -346 -383 -411 -437 -55 -46
-68 -53 -120 -65 -98 -22 -155 33 -131 127 21 85 106 228 254 427 61 82 65 91
49 102 -10 7 -23 17 -29 22 -7 5 -29 17 -50 26 -52 22 -144 92 -144 111 0 8
24 43 53 79 182 221 258 521 181 714 -17 44 -66 81 -106 81 -79 0 -183 -127
-240 -292 -30 -87 -32 -102 -32 -238 -1 -152 3 -175 51 -278 14 -29 22 -59 19
-67 -8 -21 -143 -119 -213 -154 -105 -52 -204 -75 -323 -75 -140 0 -201 23
-286 108 -91 92 -130 211 -118 361 31 375 332 754 704 885 44 16 96 25 161 28
123 5 188 -12 251 -68 26 -22 52 -40 60 -40 8 0 24 13 36 29 l21 29 -29 40
c-36 50 -95 86 -175 106 -75 20 -144 19 -270 -4z m418 -510 c15 -29 17 -50 13
-116 -12 -165 -81 -350 -169 -448 l-43 -50 -15 50 c-34 117 -3 349 67 504 47
104 111 130 147 60z m855 -1226 c70 -49 -41 -135 -153 -119 -27 5 -45 12 -45
20 0 23 48 72 93 94 50 25 75 26 105 5z m-908 -619 c0 -12 -106 -164 -173
-249 -100 -125 -195 -196 -264 -196 -32 0 -83 51 -83 84 0 55 41 137 99 195
65 67 188 132 292 155 67 15 129 20 129 11z"/>
<path d="M5225 4820 c10 -11 20 -20 23 -20 3 0 -3 9 -13 20 -10 11 -20 20 -23
20 -3 0 3 -9 13 -20z"/>
<path d="M569 4683 c-13 -16 -12 -17 4 -4 9 7 17 15 17 17 0 8 -8 3 -21 -13z"/>
<path d="M5490 4440 c6 -11 13 -20 16 -20 2 0 0 9 -6 20 -6 11 -13 20 -16 20
-2 0 0 -9 6 -20z"/>
<path d="M2205 4170 c-4 -6 11 -35 34 -64 l40 -54 35 16 c39 18 40 9 -10 87
-13 19 -25 25 -55 25 -21 0 -41 -5 -44 -10z"/>
<path d="M2073 4163 l-32 -4 36 -55 c33 -50 39 -54 74 -54 22 0 39 2 39 5 0 3
-7 22 -15 42 -18 43 -43 74 -59 71 -6 0 -25 -3 -43 -5z"/>
<path d="M81 3604 c0 -11 3 -14 6 -6 3 7 2 16 -1 19 -3 4 -6 -2 -5 -13z"/>
<path d="M51 3454 c0 -11 3 -14 6 -6 3 7 2 16 -1 19 -3 4 -6 -2 -5 -13z"/>
<path d="M41 3394 c0 -11 3 -14 6 -6 3 7 2 16 -1 19 -3 4 -6 -2 -5 -13z"/>
<path d="M5861 3394 c0 -11 3 -14 6 -6 3 7 2 16 -1 19 -3 4 -6 -2 -5 -13z"/>
<path d="M32 3320 c0 -14 2 -19 5 -12 2 6 2 18 0 25 -3 6 -5 1 -5 -13z"/>
<path d="M5872 3320 c0 -14 2 -19 5 -12 2 6 2 18 0 25 -3 6 -5 1 -5 -13z"/>
<path d="M22 3225 c0 -16 2 -22 5 -12 2 9 2 23 0 30 -3 6 -5 -1 -5 -18z"/>
<path d="M5882 3220 c0 -19 2 -27 5 -17 2 9 2 25 0 35 -3 9 -5 1 -5 -18z"/>
<path d="M14 2960 c0 -96 2 -136 3 -87 2 48 2 126 0 175 -1 48 -3 8 -3 -88z"/>
<path d="M5894 2960 c0 -96 2 -136 3 -87 2 48 2 126 0 175 -1 48 -3 8 -3 -88z"/>
<path d="M22 2685 c0 -16 2 -22 5 -12 2 9 2 23 0 30 -3 6 -5 -1 -5 -18z"/>
<path d="M5882 2685 c0 -16 2 -22 5 -12 2 9 2 23 0 30 -3 6 -5 -1 -5 -18z"/>
<path d="M32 2590 c0 -14 2 -19 5 -12 2 6 2 18 0 25 -3 6 -5 1 -5 -13z"/>
<path d="M5872 2590 c0 -14 2 -19 5 -12 2 6 2 18 0 25 -3 6 -5 1 -5 -13z"/>
<path d="M41 2514 c0 -11 3 -14 6 -6 3 7 2 16 -1 19 -3 4 -6 -2 -5 -13z"/>
<path d="M5861 2514 c0 -11 3 -14 6 -6 3 7 2 16 -1 19 -3 4 -6 -2 -5 -13z"/>
<path d="M51 2454 c0 -11 3 -14 6 -6 3 7 2 16 -1 19 -3 4 -6 -2 -5 -13z"/>
<path d="M5851 2454 c0 -11 3 -14 6 -6 3 7 2 16 -1 19 -3 4 -6 -2 -5 -13z"/>
<path d="M2940 2092 c-40 -40 -43 -106 -6 -149 33 -38 102 -40 140 -4 31 29
32 37 7 44 -12 3 -27 -3 -37 -14 -19 -22 -54 -25 -72 -7 -16 16 -16 90 0 106
16 16 53 15 71 -2 14 -14 57 -11 57 4 0 18 -43 43 -84 47 -40 5 -48 2 -76 -25z"/>
<path d="M3411 2098 c-5 -13 -23 -58 -40 -101 -17 -43 -31 -80 -31 -82 0 -3
11 -5 24 -5 15 0 26 7 29 20 4 16 14 20 50 20 37 0 47 -4 52 -20 4 -13 15 -20
32 -20 16 0 23 4 20 13 -75 189 -79 197 -103 197 -16 0 -27 -8 -33 -22z m53
-85 c6 -20 4 -23 -18 -23 -29 0 -31 6 -15 47 11 30 19 24 33 -24z"/>
<path d="M3800 2015 l0 -105 25 0 c23 0 25 4 25 40 l0 40 55 0 c48 0 55 2 55
20 0 18 -7 20 -55 20 -52 0 -55 1 -55 25 0 24 2 25 65 25 58 0 65 2 65 20 0
19 -7 20 -90 20 l-90 0 0 -105z"/>
<path d="M4250 2015 l0 -105 85 0 c78 0 85 2 85 20 0 18 -7 20 -65 20 -63 0
-65 1 -65 25 0 24 3 25 55 25 48 0 55 2 55 20 0 18 -7 20 -55 20 -48 0 -55 2
-55 20 0 18 7 20 60 20 53 0 60 2 60 20 0 18 -7 20 -80 20 l-80 0 0 -105z"/>
<path d="M4768 1928 c-74 -79 -277 -296 -452 -482 l-317 -339 28 -29 28 -29
39 43 c39 42 709 758 815 871 l54 57 -23 25 c-13 14 -27 25 -31 25 -4 0 -68
-64 -141 -142z"/>
<path d="M5425 1364 c-9 -15 -12 -23 -6 -20 11 7 35 46 28 46 -3 0 -12 -12
-22 -26z"/>
<path d="M560 1236 c0 -2 8 -10 18 -17 15 -13 16 -12 3 4 -13 16 -21 21 -21
13z"/>
<path d="M5329 1223 c-13 -16 -12 -17 4 -4 9 7 17 15 17 17 0 8 -8 3 -21 -13z"/>
<path d="M590 1196 c0 -2 8 -10 18 -17 15 -13 16 -12 3 4 -13 16 -21 21 -21
13z"/>
<path d="M620 1156 c0 -2 8 -10 18 -17 15 -13 16 -12 3 4 -13 16 -21 21 -21
13z"/>
<path d="M660 1106 c0 -2 8 -10 18 -17 15 -13 16 -12 3 4 -13 16 -21 21 -21
13z"/>
<path d="M1596 1095 c-11 -8 -29 -12 -41 -9 -49 12 -163 -102 -151 -151 3 -12
-1 -30 -9 -41 -18 -23 -19 -66 -3 -82 7 -7 11 -27 10 -46 -1 -19 4 -40 11 -48
8 -7 19 -24 26 -36 18 -33 85 -72 125 -72 19 0 38 -4 41 -10 3 -5 21 -10 40
-10 19 0 37 5 40 10 3 6 20 10 36 10 63 0 165 98 157 153 -1 13 3 32 11 41 19
23 22 63 5 77 -8 6 -14 26 -14 45 0 65 -104 173 -155 160 -12 -3 -30 1 -41 9
-10 8 -30 14 -44 14 -14 0 -34 -6 -44 -14z m103 -141 c12 -15 21 -37 21 -50 0
-15 6 -24 15 -24 19 0 19 -10 -1 -24 -20 -15 -9 -43 25 -61 l26 -14 -22 -7
c-13 -3 -23 -10 -23 -15 0 -5 -9 -9 -20 -9 -12 0 -34 -7 -50 -15 -27 -14 -33
-14 -60 0 -16 8 -38 15 -50 15 -11 0 -20 4 -20 9 0 5 -10 11 -22 15 -22 6 -22
7 10 26 34 21 42 47 17 56 -21 8 -19 24 3 24 12 0 17 9 18 30 2 44 30 70 75
70 29 0 42 -6 58 -26z"/>
<path d="M2157 1096 c-9 -7 -28 -11 -40 -9 -55 11 -164 -102 -152 -157 4 -18
1 -31 -10 -40 -17 -14 -21 -65 -5 -75 6 -3 10 -24 10 -45 0 -21 6 -45 13 -52
7 -7 20 -26 30 -41 10 -15 29 -32 42 -37 12 -5 26 -14 30 -19 3 -6 24 -11 45
-11 21 0 42 -4 45 -10 3 -5 21 -10 40 -10 19 0 37 5 40 10 3 6 20 10 36 10 65
0 167 101 157 155 -3 14 1 33 8 42 16 21 18 69 4 78 -5 3 -10 21 -10 40 0 33
-51 125 -69 125 -4 0 -19 9 -32 21 -16 14 -32 19 -50 15 -15 -3 -35 1 -45 9
-24 18 -64 18 -87 1z m144 -136 c17 -10 19 -22 19 -108 0 -63 -4 -102 -12
-110 -8 -8 -47 -12 -110 -12 -117 0 -118 1 -118 124 0 111 5 116 116 116 47 0
94 -5 105 -10z"/>
<path d="M2126 924 c-19 -18 -22 -114 -6 -145 9 -16 22 -19 78 -19 40 0 73 5
80 12 7 7 12 39 12 74 0 81 -12 94 -90 94 -40 0 -64 -5 -74 -16z m139 -74 l0
-65 -65 0 -65 0 -3 54 c-5 80 -2 82 70 79 l63 -3 0 -65z"/>
<path d="M2240 900 c0 -5 5 -10 10 -10 6 0 10 5 10 10 0 6 -4 10 -10 10 -5 0
-10 -4 -10 -10z"/>
<path d="M2170 880 c-24 -24 -24 -29 -4 -58 18 -27 45 -28 67 -4 23 25 21 48
-5 66 -29 20 -34 20 -58 -4z m50 -15 c17 -20 5 -45 -20 -45 -11 0 -23 7 -26
15 -6 15 11 45 26 45 4 0 13 -7 20 -15z"/>
<path d="M5229 1093 c-13 -16 -12 -17 4 -4 9 7 17 15 17 17 0 8 -8 3 -21 -13z"/>
<path d="M720 1035 c13 -14 26 -25 28 -25 3 0 -5 11 -18 25 -13 14 -26 25 -28
25 -3 0 5 -11 18 -25z"/>
<path d="M5169 1023 l-24 -28 28 24 c25 23 32 31 24 31 -2 0 -14 -12 -28 -27z"/>
<path d="M2569 941 c-26 -26 -29 -36 -29 -91 0 -55 3 -65 29 -91 37 -36 79
-38 118 -5 26 22 28 30 28 96 0 66 -2 74 -28 96 -39 33 -81 31 -118 -5z m91
-26 c18 -22 22 -87 8 -115 -32 -59 -93 -13 -84 63 5 44 21 67 46 67 10 0 23
-7 30 -15z"/>
<path d="M3870 950 c-11 -11 -17 -26 -14 -35 5 -11 -1 -15 -20 -15 -16 0 -26
-6 -26 -15 0 -9 10 -15 26 -15 25 0 26 -1 22 -67 -3 -64 -2 -68 20 -71 21 -3
22 0 22 67 0 69 1 71 25 71 16 0 25 6 25 15 0 9 -9 15 -25 15 -16 0 -25 6 -25
15 0 9 9 15 24 15 23 0 41 22 29 34 -14 13 -64 5 -83 -14z"/>
<path d="M4082 958 c-7 -7 -12 -22 -12 -35 0 -18 -6 -23 -25 -23 -16 0 -25 -6
-25 -15 0 -9 10 -15 26 -15 25 0 25 -1 22 -70 -3 -67 -2 -70 19 -70 22 0 23 4
23 70 0 68 1 70 25 70 16 0 25 6 25 15 0 9 -9 15 -25 15 -16 0 -25 6 -25 15 0
9 9 15 24 15 23 0 41 22 29 34 -11 11 -69 6 -81 -6z"/>
<path d="M875 870 c49 -49 92 -90 95 -90 2 0 -36 41 -85 90 -49 50 -92 90 -95
90 -2 0 36 -40 85 -90z"/>
<path d="M5030 873 l-85 -88 88 85 c81 79 92 90 84 90 -1 0 -41 -39 -87 -87z"/>
<path d="M2776 814 c19 -48 33 -93 30 -100 -3 -8 -17 -14 -32 -14 -20 0 -25
-4 -20 -16 3 -9 6 -18 6 -20 0 -9 47 -3 63 9 9 6 37 60 61 120 45 106 45 107
22 107 -20 0 -27 -10 -46 -60 -12 -33 -24 -60 -25 -60 -1 0 -13 27 -25 60 -18
49 -26 60 -45 60 l-23 0 34 -86z"/>
<path d="M3002 890 c-24 -10 -42 -46 -42 -86 0 -36 42 -74 82 -74 33 0 78 23
78 39 0 16 -30 21 -50 9 -14 -9 -25 -9 -47 3 -27 14 -26 14 40 17 72 3 77 9
56 55 -18 41 -68 56 -117 37z m76 -47 c2 -9 -8 -13 -32 -13 -34 0 -44 8 -29
24 11 11 56 2 61 -11z"/>
<path d="M3423 890 c-42 -17 -57 -85 -28 -127 20 -28 76 -39 114 -23 34 14 48
39 29 52 -18 11 -24 10 -38 -7 -27 -32 -80 -12 -80 31 0 31 24 48 57 40 59
-14 73 -14 73 0 0 17 -51 44 -82 43 -13 0 -33 -4 -45 -9z"/>
<path d="M3623 890 c-13 -5 -23 -16 -23 -24 0 -21 32 -30 42 -11 11 19 54 20
61 1 6 -15 -2 -19 -60 -31 -39 -8 -56 -26 -51 -57 4 -30 48 -46 88 -31 17 6
30 7 30 2 0 -5 10 -9 23 -9 21 0 22 3 19 70 -3 58 -7 73 -25 85 -24 17 -70 19
-104 5z m87 -88 c0 -21 -28 -44 -51 -40 -31 4 -31 30 1 39 36 10 50 10 50 1z"/>
<path d="M4246 879 c-55 -43 -22 -149 47 -149 52 0 106 41 71 54 -8 3 -23 1
-33 -6 -20 -12 -71 -3 -71 12 0 6 27 10 60 10 60 0 60 0 60 29 0 36 -40 71
-80 71 -15 0 -39 -9 -54 -21z m78 -25 c29 -11 16 -24 -24 -24 -38 0 -54 13
-27 23 18 8 33 8 51 1z"/>
<path d="M4463 890 c-44 -18 -58 -90 -25 -130 25 -31 90 -38 122 -12 20 17 23
23 12 34 -10 10 -16 10 -32 0 -27 -16 -55 -15 -70 3 -11 13 -4 15 54 15 73 0
79 7 51 59 -21 41 -61 52 -112 31z m75 -47 c2 -9 -9 -13 -38 -13 -37 0 -41 2
-30 16 15 17 61 15 68 -3z"/>
<path d="M1020 735 c13 -14 26 -25 28 -25 3 0 -5 11 -18 25 -13 14 -26 25 -28
25 -3 0 5 -11 18 -25z"/>
<path d="M4884 738 l-19 -23 23 19 c21 18 27 26 19 26 -2 0 -12 -10 -23 -22z"/>
<path d="M3150 720 l0 -30 105 0 105 0 0 30 0 30 -105 0 -105 0 0 -30z"/>
<path d="M1085 680 c10 -11 20 -20 23 -20 3 0 -3 9 -13 20 -10 11 -20 20 -23
20 -3 0 3 -9 13 -20z"/>
<path d="M4809 673 c-13 -16 -12 -17 4 -4 9 7 17 15 17 17 0 8 -8 3 -21 -13z"/>
<path d="M4719 603 c-13 -16 -12 -17 4 -4 16 13 21 21 13 21 -2 0 -10 -8 -17
-17z"/>
<path d="M4679 573 c-13 -16 -12 -17 4 -4 16 13 21 21 13 21 -2 0 -10 -8 -17
-17z"/>
<path d="M1450 426 c0 -3 9 -10 20 -16 11 -6 20 -8 20 -6 0 3 -9 10 -20 16
-11 6 -20 8 -20 6z"/>
<path d="M4150 270 c-8 -5 -10 -10 -5 -10 6 0 17 5 25 10 8 5 11 10 5 10 -5 0
-17 -5 -25 -10z"/>
<path d="M1910 200 c8 -5 20 -10 25 -10 6 0 3 5 -5 10 -8 5 -19 10 -25 10 -5
0 -3 -5 5 -10z"/>
<path d="M3498 63 c7 -3 16 -2 19 1 4 3 -2 6 -13 5 -11 0 -14 -3 -6 -6z"/>
<path d="M3448 53 c7 -3 16 -2 19 1 4 3 -2 6 -13 5 -11 0 -14 -3 -6 -6z"/>
<path d="M2508 43 c7 -3 16 -2 19 1 4 3 -2 6 -13 5 -11 0 -14 -3 -6 -6z"/>
<path d="M3388 43 c7 -3 16 -2 19 1 4 3 -2 6 -13 5 -11 0 -14 -3 -6 -6z"/>
<path d="M2668 23 c6 -2 18 -2 25 0 6 3 1 5 -13 5 -14 0 -19 -2 -12 -5z"/>
<path d="M3228 23 c7 -3 16 -2 19 1 4 3 -2 6 -13 5 -11 0 -14 -3 -6 -6z"/>
<path d="M2833 13 c9 -2 25 -2 35 0 9 3 1 5 -18 5 -19 0 -27 -2 -17 -5z"/>
<path d="M2953 13 c26 -2 68 -2 95 0 26 2 4 3 -48 3 -52 0 -74 -1 -47 -3z"/>
</g>
</svg>
